<?xml version="1.0" encoding="utf-8"?>
<!-- Generator: Adobe Illustrator 18.1.1, SVG Export Plug-In . SVG Version: 6.00 Build 0)  -->
<svg version="1.1"
	 id="svg2168" sodipodi:docname="anarchy.svg" inkscape:version="0.45.1" inkscape:output_extension="org.inkscape.output.svg.inkscape" sodipodi:docbase="C:\Users\Anne" sodipodi:version="0.32" xmlns:cc="http://web.resource.org/cc/" xmlns:sodipodi="http://sodipodi.sourceforge.net/DTD/sodipodi-0.dtd" xmlns:rdf="http://www.w3.org/1999/02/22-rdf-syntax-ns#" xmlns:svg="http://www.w3.org/2000/svg" xmlns:dc="http://purl.org/dc/elements/1.1/" xmlns:inkscape="http://www.inkscape.org/namespaces/inkscape"
	 xmlns="http://www.w3.org/2000/svg" xmlns:xlink="http://www.w3.org/1999/xlink" x="0px" y="0px" viewBox="122 361 355 70"
	 enable-background="new 122 361 355 70" xml:space="preserve">
<path fill="#2C2C2C" d="M449.9,380.1l22.4,0.2l-0.7,3.9l-2.8,1.1l-2.1-0.6c-1.9,0.3-3.5,1.1-5,2.6v9l0.7,4.5l-0.7,1.3v1.9l0.7,7.1
	c-1.1,1.6-2.8,2.7-5,3.2l-0.7-7.1l-0.7-1.9l0.7-4.5v-9l0.7-3.2l-0.7-0.6v-3.2l-4.1,0.6l-3.5-0.6L449.9,380.1z"/>
<path fill="#2C2C2C" d="M430.4,377l9.2,0.6l1.8,1.2c1.6,2.4,2.5,5.3,2.5,8.5l-1.9,1.2l-5.5-0.6l-0.6-0.6c-0.3-1.9-1.3-3.5-3.1-4.9
	l-0.6,3c1.2,2.8,3.2,5,6.1,6.7c2.2,1.4,4.3,3.5,6.2,6.1l0.6,9.1l-6.8,5.5l-9.2-0.6l-1.8-1.2c-1-2.7-1.9-5.5-2.5-8.5l0.6-2.4
	c2.2,0,4.5,0.6,6.8,1.8c0.2,2.4,1.7,4,4.3,4.9l0.6-3.7l-3.1-4.9l-7.4-4.9c-1.2-2.7-1.8-6-1.9-9.8C425.7,381.1,427.5,378.8,430.4,377
	z"/>
<path fill="#2C2C2C" d="M402.6,382.6l2-2.7l8.5-0.2l1.9,3.1l3.6,20.1l1,4.1l2,9c-1.3,0.4-2.8,0.7-4.5,0.8c-1.9,0.2-3.4,0-4.5-0.6
	l-0.9-5.7l-2.2,0.2l-2-0.1l-1.3,6.1l-7.1,0.2l-1.9-1.2l0.9-5.1L402.6,382.6z M409.5,387.3c-1,2.8-1.7,6.1-2,9.8l-0.7,7.4l4.7-0.4
	c-0.5-1.2-0.8-3.4-0.9-6.5L409.5,387.3z"/>
<path fill="#2C2C2C" d="M374.7,379.3l6.8,0.4l7-0.6l1.9,0.6l3.1,0.4l0.7,3.4l-2.9,0.8l-4.7,0l-5.7-0.6L379,385l0.3,8.2l3.8,0.6
	l9.5-0.6l0.3,4.8l-2.5,0.6l-9.5-0.6l-1.3,8.2l0.6,6.3l-1.9,0.6l-0.6-0.6l-3,0.9l-1.3-1.9l1.3-8.9l-0.6-5.7l0.6-1.9l-0.6-6.3
	L374.7,379.3z"/>
<path fill="#2C2C2C" d="M329.5,381.2l6.8,0.6l-0.6,3.4v6.8l-0.6,1.7l0.6,0.6l4-6.9c1.3-4.6,2.9-6.7,4.6-6.3l4.6,0.6l-6.9,13.7
	l5.2,13.1l1.7,3.4l-6.1,0.6l-3-6.9c-0.7-1.8-1.6-3.5-2.9-5.1l-0.6,2.3l-0.6,9.1l-5.7,0.6c-0.6-0.4-1-0.9-1.1-1.7v-20l0.6-1.1
	l-1.1-7.4L329.5,381.2z"/>
<path fill="#2C2C2C" d="M309,378.7h8.1l1.6,1.1c2.1,1.1,4.1,2.7,6,4.9l1.1,2.7l-6,1.1l-5.4-3.8c-2.5,0.4-4.4,1.9-5.9,4.3l-1.1,4.3
	l1.1,4.3c1.1,2,3.1,3.1,5.9,3.3c1.8-1.5,3.4-3.4,4.9-5.4c2.6,0.5,4.7,1.8,6.5,3.8c-1.1,1.9-2.6,3.9-4.3,5.9
	c-2.5,1.2-5.4,1.9-8.6,2.2l-8.1-2.2c-1.5-1.8-3-4-4.3-6.5l-1.1-8.7c0.8-2.2,1.9-4.5,3.3-7L309,378.7z"/>
<path fill="#2C2C2C" d="M277.9,378.5l7.4,0.6c1.9,0.8,3.8,1.8,5.5,3.1c1.2,1,2.4,2.2,3.7,3.7l1.8,6.1l0.6,4.9l-0.6,1.8
	c-0.5,1.9-1.3,4-2.4,6.1l-3.7,4.3l-4.9,2.5h-8l-5.5-3.1l-3.7-4.3l-1.8-5.5l0.6-7.4l1.8-6.1l4.3-4.3L277.9,378.5z M281.5,384
	c-2.5,0.9-5,2.1-7.3,3.7c-0.6,2.3-1,5-1.2,8c0.4,2.7,1.2,5.3,2.5,8c2.4,1.1,5,1.9,8,2.4c2-1.3,3.8-3,5.5-4.9l1.2-8
	c-0.5-1.8-1.4-3.9-2.4-6.1C285.9,385.9,283.9,384.9,281.5,384z"/>
<path fill="#2C2C2C" d="M247.8,379.8l8.9,0.6l-0.3,2.6v12l-0.7,1.4l0.7,0.7l-0.7,10l5.1,0.7l5.3-0.7l0.7,5.4l-0.7,2l-14,0.7
	l-3.3,0.7c-0.1-0.4-0.6-0.9-1.3-1.3l0.7-8.7v-13.4l0.7-2L247.8,379.8z"/>
<path fill="#2C2C2C" d="M220.6,378.8l6.5,0.7h1.8v-0.7l5.4,0.7c1.9,0.3,3.9,1,5.9,2.1c1.1,2.1,1.9,4.5,2.4,7c-0.8,2.2-2,4.3-3.6,6.3
	l3.6,4.2c0.9,1.8,1.5,3.9,1.8,6.3c-0.3,2-0.9,4.1-1.8,6.3l-5.3,3.5l-12.5,0.7l-1.5-1.5l-0.3,1.5c-1.3-0.5-2.3-1.7-3-3.5l0.6-9.1
	l-0.2-5.8L220,390l0.6-1.4l-0.6-0.7L220.6,378.8z M227.7,385.8c-0.3,1.5-0.5,3.4-0.6,5.6l0.6,2.1c1.4,0.3,3,0.6,4.8,0.7l1.8-0.7
	l1.2-2.1l-1.2-4.9L227.7,385.8z M228.3,399.1l-0.6,9.1l6,1.4l1.8-0.7l2.4-4.9l-1.2-2.8L228.3,399.1z"/>
<path fill="#2C2C2C" d="M193.8,381.5l5.2,0l1.7-0.7l4.4,0.2c2.3,0,4.4,0.1,6.5,0.5l3,2.4l1.6,5.4l0.3,7.3c-0.5,1.9-1.3,4-2.3,6.3
	l-3.7,4.2l-6.2,2.2l-13,1.2l-0.6-5l0.7-6.7l0.1-1.3l-0.4-1.6l0.9-3.4l0.6-5.4l-0.1-4.4L193.8,381.5z M202.5,385.7l-3.8,1.6
	l-0.5,10.9l-1.3,5.3l0.5,1.9l6.6-0.6c3.3-3.2,5.3-6,5.7-8.5c0.5-2.4,0.5-4.5,0-6.2C209.3,388.4,206.9,386.9,202.5,385.7z"/>
<path fill="#CD3E35" d="M199.8,388.5c-0.6,0-1.6,0.1-3.3,0.6c-1.9,0.5-3.1,0.7-3.4,0.6c-0.1-0.1-0.3-0.1-0.5-0.1
	c-0.7,0-2.1,0.2-4.7,0.8c-0.2,0.1-1,0.3-1.7,0.4c-0.1-0.1-0.1-0.2-0.2-0.5c-0.5-2.3-1.8-4.8-2.8-6.4c-0.9-1.5-2.9-3.9-3.2-4.3
	c-0.5-0.7-1.8-1.4-2-1.6c-0.3-0.4-0.2-0.4-0.7-0.7c-0.5-0.3-1-0.7-1.1-0.8c-0.2-0.2-0.5-0.3-0.8-0.4c-0.3-0.1-0.7-0.3-0.8-0.4
	c-0.9-0.4-2-1-2.5-1.1c-0.3,0-1.6-0.3-2.2-0.5c-1.1-0.4-2.4-0.5-4.2-0.6l-0.1-0.1v0c-0.8-2-1.2-2.8-1.8-3.4
	c-0.1-0.1-0.4-0.8-0.7-2.2c-0.3-1.3-0.3-2.3-0.6-2.3c-0.3,0.1-0.6,1.3-0.7,1.6c-0.2,0.3-1.1,1.1-1.4,0.3c-0.2-0.7-0.6-0.9-1.3,0
	c-0.4,0.5-0.5,0.6-0.9,0.4c-0.4-0.2-0.5-0.2-0.6,0.2c-0.1,0.2-0.1,0.7-0.1,0.9c0.2,0.8,0.5,4.4,0.5,4.8c0,0.1,0,0.2-0.1,0.4
	c-0.8,0.3-1.4,0.5-2,0.6c-0.8,0.1-1.5,0.1-1.6,0.2c-0.7,0.1-1.9,0.6-3.1,1.2c-1.1,0.6-2.5,1.2-3.1,1.5c-1.2,0.4-4,2.6-5.4,4.5
	c-0.5,0.6-1.3,1.1-1.6,1.2c-0.4,0.1-0.4,0.4-0.2,1.1c0,0.1,0,0.1,0,0.2c-0.2,0.1-0.2,0.2-0.5,0.3c-0.4,0.1-0.6,0.3-0.6,0.4
	c0,0.1-0.1,0.3-0.3,0.5c-0.2,0.1-0.5,0.7-0.7,1.3s-1,1.9-1.4,2.9s-1,2.4-1.1,3.1c-0.1,0.7-0.2,1.8-0.3,2.1c-0.1,0.3-0.2,1-0.2,1.3
	c0.1,0.4,0,1-0.1,1.5c-0.1,0.4,0,1,0,1.3c0,0.6,0.1,1.1,0,1.4c0,0.4,0,1.2,0.1,1.9c0.4,3,1.4,1.9-4.8,4c-4.2,1.4-4.9,1.8-4.7,2.5
	c0.1,0.4,0.9,0.2,0.9,0.2c0.2,0,0.5,0.2,0.7,0.6c0.2,0.4,0.6,0.7,0.9,0.7c1.1,0,1.6,1.1,1.7,1.5c0.1,0.5-0.3,0.8-0.6,0.9
	c-1.5,0.4-1.2,1.5,0.3,1.4c0.5-0.1,1.4,0.3,2.5-0.3c0.9-0.4,2.5-1.2,3.8-1.6l2.1-0.7c0.3,0,0.4,0.1,0.4,0.2l0.6,0.8
	c0.4,0.5,0.7,1,0.8,1.2c0,0.2,0.3,0.4,0.6,0.6c0.1,0,0.2,0.1,0.3,0.2c-0.2,0.7-0.5,1.1-0.6,1.2c-0.2,0.3-1.6,5.1-2.5,6.8
	c-0.3,0.4-0.5,1-0.6,1.3c-0.3,1.5-1.9,2.6,0.7,3.1c0.1,0.1,0.5-0.2,0.9-0.6c0.9-0.9,1.1-0.9,1.2-0.4c0.1,0.5,1.3,0.2,2-0.7
	c1-0.8,1.8-0.9,2.6-0.1c0,0,0,0,0,0c1,0.7,1.4,0.8,1.6-0.4v0c0.1-0.5-0.5-1.6-0.1-2.1c0.5-0.6,0.6-1.1,0.7-1.6c0-0.5,0-0.8,0.2-1.1
	c0-0.1,0.1-0.1,0.1-0.2c0.8,0.4,1.3,0.4,1.3,0.4c0.2,0,0.7,0.5,1.6,0.7c0.9,0.2,1.9,0.5,2.3,0.6c0.3,0.2,0.8,0.2,1,0.2
	c0.2,0,0.3,0.1,0.5,0.1c0.2,0.1,0.4,0.2,0.7,0.1s1.1,0.1,1.7,0.3c0.7,0.1,1.6,0.3,2.2,0.2c0.9,0,1.3,0,1.8,0c0.9,0,3.2-0.2,6.5-1
	c0.9-0.3,1.4-0.6,2.1-0.6c0.7,0,1-0.3,1.3-0.6c1-0.6,2.7-1.3,3.7-1.8c0,0.1,0,0.2,0,0.2c0,0.1,0.1,0.2,0.1,0.2
	c0.7,0.7,1.2,0.1,1.6,0.4c0.4,0.3,0.5,0.3,0.9,0.8c0.7,0.9,1.3,0.2,1.9,0.7c0,0,0,0,0,0c1,1.3,1.5,1.4,1.8,1.2
	c0.3-0.4,0.2-0.6-0.1-1.3l0-0.5c0.2-0.5,0.3-0.8,1.3-0.4c0.5,0.4,0.7,0.1,1.9,1.3c0.6,0.8,1.6,1.1,1.5,0c-0.6-2-1.4-3.3-2.4-4.8h0
	c-0.3-0.6-0.5-1.4-0.7-1.9c-0.2-0.6-0.5-1.3-0.8-1.8c0.6-0.8,1.2-1.8,1.5-2.4c0.4-0.7,0.7-1.3,0.7-1.4c0.2-0.4,0.5-1.1,0.6-1.3
	c0.2-0.3,0.4-0.6,0.5-1.1c0.1-0.5,0.4-1.3,0.7-1.9c0.6-1,1.1-4.1,1.2-7c-0.1-0.8-0.1-1.8-0.1-2.2c0-0.7,0.1-0.8,2.3-1.6
	c1.2-0.5,3.6-1.2,5.3-1.6c2.3-0.6,3.4-1.1,4.6-1.7c0,0,0,0,0,0c1-1.1,0.6-0.7,1.2-1.2C200,388.7,200,388.5,199.8,388.5z
	 M164.5,396.1c-0.4,0.2-1.1,0.4-2,0.7c-1.6,0.5-3.4,1.1-4.1,1.4c-1.3,0.4-3.4,0.8-3.5,0.5c-0.1-0.2,0.5-2.6,0.7-3
	c0.2-0.3,0.2-0.7,0.3-1.2c0.1-0.4,0.2-0.9,0.8-2.1c0.6-1.2,1-2.3,1.2-3.1c0.3-1.6,0.7-3.3,1.2-4c0.2-0.4,0.6-1.2,0.9-1.9
	c0.6-1.6,1-2.1,1.3-1.6c0.4,0.7,1.4,4.4,1.3,5.4c0,0.6,0.1,1.1,0.3,1.4c0.2,0.2,0.7,1.3,1.5,4.2c0.3,1.2,0.4,1.7,0.5,2
	C165.2,395.2,165.2,395.7,164.5,396.1L164.5,396.1z M169.9,379.6c0.7,0.1,2.3,0.9,2.3,0.9c0.5,0.2,1.6,1.2,1.9,1.4
	c0.4,0.2,0.8,0.7,1.2,1.1c0.4,0.5,0.2,0.6,1.1,1.2c0.6,0.6,1.2,1.5,1.6,2.3c0.3,0.6,0.8,1.6,1.3,2.2c0.3,0.5,0.9,2.4,0.7,2.6
	c-0.2,0.3-4.7,1.8-6.2,2.1c0,0,0,0,0,0c0,0-0.1,0-0.1,0c-1.6,0.1-1.9-0.1-2.2-1.4c-0.1-0.5-0.6-1.3-0.8-1.8
	c-0.8-1.7-1.4-2.7-2.4-5.7c-0.5-1.7-0.7-3.6-1-4.1c-0.4-0.6-1-1-1.2-1.5c0.5,0.1,1.4,0.1,1.5,0.1
	C167.9,379.1,169.1,379.5,169.9,379.6z M141.6,395.4c0.1-0.4,0.1-1,0.1-1.3c0-0.3,0.2-1.1,0.5-1.9c0.3-0.8,0.5-1.3,0.5-1.7
	c0-0.2,0.2-0.4,0.4-0.5c0.1-0.1,0.3-0.3,0.4-0.5c0-0.2,0.1-0.5,0.3-0.7c0.2-0.2,0.6-0.7,0.9-1.2c1.9-2.4,2-2.6,2.9-3.2
	c0.4-0.2,1.5-1.3,2.2-1.8c0.7-0.5,1.3-0.9,1.9-1.2l0.9-0.4c0.2-0.2,0.9-0.4,1.2-0.5c0.4-0.2,1-0.5,1.6-0.7c-0.1,0.3-0.2,0.5-0.4,0.9
	l-0.2,0.9c-0.1,0.5-0.3,0.9-0.6,1.4c-0.7,1-1.2,2.9-1.3,3.2c-0.1,0.6-0.3,1.2-0.7,2.2c-0.4,1-1,2.4-1.1,3.1
	c-0.2,0.7-0.6,1.7-0.9,2.3c-0.4,0.6-0.6,1.3-0.6,1.5L149,396c0,0.3-0.1,0.8-0.5,1.5c-0.4,0.7-1,2.6-1.1,2.9
	c-0.1,0.5-0.4,0.8-2.4,1.5l-1.1,0.4c-0.7,0.2-1.4,0.4-1.6,0.3c-0.4-0.2-0.7-2.2-0.7-2.2C141.2,398.3,141.2,397.2,141.6,395.4z
	 M169.8,414.4c-0.3,0-1,0.3-1.4,0.6c-0.3,0.2-1.2,0.4-1.6,0.5c-0.3,0.1-1.3,0.3-1.5,0.4c-0.3,0.2-0.7,0.2-0.9,0.2
	c-0.8,0.2-1.3,0.3-1.6,0.3c-0.3,0-0.9,0.2-1.4,0.2c-0.7,0.1-0.9,0.1-1.6,0.1c-0.7,0-0.8-0.2-1.9-0.2c-1.9-0.1-4.3-0.9-4.8-0.9
	c-0.4-0.1-1.2-0.3-1.7-0.6c-0.9-0.4-1.5-0.7-2.3-1.1c0.2-0.1,0.4-0.3,0.4-0.5c-0.1-0.2,0.9-2.6,1.5-3.6c0.2-0.3,0-0.5,0.2-0.9
	c0.1-0.5,0.1-0.7,0.4-1.1c0.3-0.5,0.4-0.8,0.6-1.6c0-0.1,0-0.2,0.1-0.3l0.7-0.1c0,0,0.2,0,0.3-0.1c0.4-0.1,0.6-0.6,0.6-0.7
	c-0.1-0.2,2.1-1.2,4.2-1.8c5.2-1.5,7.6-2.3,8.6-2.8c1-0.4,1.2,0,1.3,0.4c0.1,0.5,0.7,3,1.8,5.6c0.3,0.9,0.7,1.6,0.8,1.8
	c0.1,0.1,0.2,0.2,0.4,0.2c0.5,0,0.9,0.9,0.5,1.2c-0.2,0.1-0.1,0.5,0.2,1.1c0.3,0.6,0.4,1.1,0.4,1.3c0,0,0.1,0.2,0.2,0.6
	C171.4,413.5,170.3,414.2,169.8,414.4z M180.9,396.1c0,0,0.3,0.9,0.3,1.7c0,0.8-0.1,1.3-0.1,1.5c0,0.1-0.1,0.3,0,0.7
	c0,0.4,0,1-0.3,1.6c-0.3,0.5-0.5,1.3-0.7,1.7l-0.3,1c-0.4,0.8-0.8,1.2-1.1,2c-0.1,0.1-0.2,0.3-0.2,0.5c-0.2-0.3-0.4-0.7-0.6-1.2
	l-0.6-1.4c-0.3-0.8-0.6-1.6-0.7-1.9c-0.1-0.3-0.6-1-1-1.7c-1.7-2.8-0.6-3,2.8-4.1c0,0,0.1,0,0.1,0c0.2-0.1,0.4-0.1,0.7-0.2
	C180.7,395.8,180.9,395.8,180.9,396.1z"/>
</svg>
