<svg width="152" height="125" viewBox="0 0 152 125" fill="none" xmlns="http://www.w3.org/2000/svg">
<path fill-rule="evenodd" clip-rule="evenodd" d="M144.055 46.9529C147.574 46.008 149.702 45.7615 150.827 45.8232C151.154 45.8643 151.297 46.2751 150.99 46.3778C150.856 46.503 150.749 46.6015 150.661 46.6823L150.657 46.6859L150.657 46.6865L150.656 46.6877C150.477 46.8523 150.38 46.9422 150.285 47.0353C150.172 47.1468 150.064 47.2628 149.826 47.5175C149.586 47.7735 149.215 48.1698 148.577 48.8426C148.554 48.8758 148.544 48.8911 148.53 48.8981C148.518 48.9042 148.503 48.9042 148.474 48.9042C146.081 50.1983 143.749 51.1636 139.125 52.3755C135.709 53.2588 130.84 54.7582 128.303 55.7441C123.905 57.4284 123.7 57.6133 123.659 59.01C123.618 59.8317 123.536 61.9062 123.782 63.5084C123.618 69.6088 122.473 75.812 121.327 77.9687C120.672 79.1601 120.079 80.9265 119.956 81.9125C119.834 82.8984 119.506 83.5146 119.036 84.213C118.885 84.4297 118.66 84.9437 118.421 85.4895L118.42 85.4898L118.42 85.49C118.206 85.9787 117.981 86.4929 117.788 86.8422C117.782 86.8525 117.775 86.8663 117.766 86.8833L117.745 86.9268L117.71 86.9996L117.656 87.1113C117.426 87.5906 116.939 88.6061 116.254 89.7589C115.579 90.8886 114.351 92.8605 113.144 94.6064C113.696 95.7361 114.31 97.1123 114.781 98.4063C115.21 99.6388 115.763 101.097 116.295 102.412C116.782 103.611 117.428 104.839 118.099 106.113C119.312 108.417 120.604 110.874 121.184 113.586C121.348 115.742 119.138 115.537 117.522 114.572C113.84 112.969 113.328 112.99 111.876 113.462C111.81 113.482 111.739 113.508 111.664 113.535C110.965 113.788 109.837 114.196 108.009 111.86C106.68 110.689 106.148 110.484 104.47 109.868C103.555 109.524 102.739 109.522 102 109.52C100.972 109.517 100.092 109.514 99.2943 108.594C99.1102 108.307 98.7624 107.239 98.742 107.095C98.7398 107.084 98.7375 107.073 98.7349 107.061L98.7304 107.041C98.7269 107.026 98.7231 107.01 98.7191 106.993C98.7162 106.982 98.7132 106.969 98.7101 106.957L98.6985 106.91C98.6899 106.875 98.6807 106.838 98.6711 106.799C98.6609 106.757 98.6503 106.711 98.6397 106.664C98.0796 106.933 97.4156 107.243 96.7032 107.576L96.7018 107.576C94.8647 108.433 92.7055 109.441 91.1727 110.299L91.1223 110.34L91.0313 110.416C90.4382 110.906 89.8977 111.353 88.5132 111.429C87.5176 111.485 86.6854 111.812 85.6871 112.203C85.229 112.383 84.736 112.577 84.1762 112.764C77.3843 114.428 72.6791 114.941 70.7766 114.859C70.5425 114.85 70.3234 114.839 70.1038 114.828C69.3253 114.789 68.5418 114.749 67.0737 114.798C66.0535 115.082 64.3004 114.736 62.9586 114.471C62.8475 114.449 62.7393 114.428 62.6345 114.407C62.2052 114.33 61.7679 114.225 61.3471 114.123C60.4243 113.901 59.5807 113.697 59.0749 113.853C58.3588 114.079 58.0315 113.996 57.6224 113.709C57.5473 113.677 57.4765 113.636 57.405 113.595C57.2039 113.479 56.9983 113.361 56.6813 113.421C56.2517 113.565 55.3311 113.38 54.656 113.052C53.9809 112.723 51.8943 112.148 50.0326 111.778C48.8127 111.533 47.934 110.991 47.3669 110.64C47.0781 110.462 46.8701 110.334 46.739 110.32C46.6981 110.32 45.6138 110.176 44.0386 109.416C43.9977 109.539 43.9363 109.683 43.875 109.827L43.8749 109.827C43.609 110.484 43.5476 110.956 43.5476 112.086C43.4453 113.052 43.118 114.12 42.1565 115.352C41.613 115.963 41.9044 117.116 42.1661 118.151C42.3181 118.753 42.46 119.314 42.4224 119.707V119.768C41.8701 122.171 41.0722 122.13 39.0469 120.569C37.2058 119.481 35.7328 119.132 33.7075 120.734C32.6121 121.31 31.665 121.458 30.8662 121.582C30.4417 121.649 30.0591 121.708 29.7183 121.822C28.8796 121.925 28.1226 122.233 27.2634 122.931C27.1361 123.053 27.0123 123.175 26.892 123.293C26.2007 123.97 25.6237 124.536 25.1358 124.431C21.3073 123.695 22.012 122.251 22.9512 120.326C23.3218 119.567 23.7289 118.733 23.9084 117.837C24.0107 117.242 24.5426 116.009 25.0745 115.106C26.263 113.049 27.7875 108.435 28.8947 105.083C29.5788 103.013 30.1036 101.424 30.2911 101.22C30.4139 101.056 31.089 100.152 31.539 98.7761C31.3345 98.5296 31.1299 98.3447 30.9458 98.2626C30.3934 98.0366 29.8001 97.5026 29.7183 97.1329C29.5956 96.7837 28.8386 95.6539 28.0613 94.6475L26.7929 93.0248C26.7743 93.0093 26.753 92.9881 26.7282 92.9636L26.728 92.9633L26.7279 92.9632L26.7277 92.9631C26.5887 92.8253 26.3437 92.5823 25.8928 92.6345L21.4944 94.0723C19.5152 94.6791 17.1566 96.0253 15.358 97.0519L15.358 97.0519L15.3577 97.0521L15.3568 97.0526C14.7206 97.4157 14.1544 97.7388 13.7001 97.975C12.0866 98.7922 11.39 98.7088 10.7547 98.6328C10.4798 98.5999 10.2163 98.5683 9.89497 98.6118C7.80831 98.6528 6.99001 97.8723 8.197 95.3048C8.60615 94.4626 8.68798 92.9632 8.4834 91.9978C8.18781 90.9887 7.32276 90.7992 5.92482 90.4929L5.76255 90.4573C5.02608 90.1697 4.16687 89.4713 3.5736 88.8551C3.03322 88.3637 2.34041 88.2652 1.74587 88.1807H1.74583C1.14746 88.0956 0.648634 88.0246 0.504971 87.5816C0.0753634 86.2259 1.60968 85.4249 10.1609 82.5287C12.5971 81.7278 14.4921 81.1572 15.9582 80.7158L15.9583 80.7158C19.0583 79.7824 20.241 79.4263 20.568 78.6901C20.7697 78.236 20.6458 77.6372 20.4454 76.6691C20.3205 76.0657 20.1659 75.3189 20.0419 74.3742C19.7964 72.9364 19.6941 71.3137 19.7964 70.4715C19.8899 69.9754 19.8439 69.4005 19.7893 68.7182C19.7603 68.3554 19.7288 67.9622 19.7146 67.5343C19.7034 67.3428 19.6737 67.1158 19.6416 66.8702L19.6416 66.8701C19.5566 66.22 19.4546 65.4398 19.6328 64.8435C19.8782 63.9603 20.0419 62.6662 19.9192 61.8651C19.8173 61.2001 20.0255 60.2378 20.1811 59.5189C20.213 59.3718 20.2426 59.2348 20.2669 59.1127C20.3336 58.7781 20.3958 58.1498 20.468 57.4204L20.4681 57.4203C20.551 56.5827 20.6472 55.6117 20.7784 54.7993C21.0648 53.2588 22.0877 50.5064 23.0287 48.3291C23.4563 47.3397 24.0234 46.2443 24.5455 45.2355C25.1724 44.0244 25.7346 42.9383 25.9132 42.3108C26.2405 41.1605 26.9361 39.9692 27.3452 39.6611C27.7953 39.353 28.0613 38.9011 27.9999 38.6341C27.9385 38.367 28.4295 37.9973 29.166 37.7714C29.5833 37.6438 29.7431 37.5002 30.0166 37.2543C30.0514 37.223 30.0881 37.19 30.1275 37.1552C30.2158 37.1019 30.2126 36.972 30.2101 36.8714L30.2095 36.8456L30.2093 36.8265C30.1953 36.7446 30.1816 36.6653 30.1683 36.5886C29.9486 35.3197 29.8514 34.7584 30.7003 34.526C31.2731 34.3617 32.9506 33.4579 33.9326 32.1433C36.7557 28.3228 42.4633 23.9272 44.8978 23.0029C46.1457 22.5099 48.9893 21.1748 51.2396 19.9629C53.6945 18.6689 56.0471 17.6419 57.5201 17.3954C57.7451 17.3543 59.1976 17.19 60.7728 17.0873C61.5823 16.9082 62.4379 16.609 63.3888 16.2764C63.8557 16.1131 64.3456 15.9418 64.8643 15.7727C64.9666 15.3619 65.0075 15.0743 65.0075 14.9716C65.0689 14.0679 64.3734 6.71443 64.046 5.05067C63.8619 3.5923 64.2506 1.55881 64.4552 1.06585C64.6802 0.65504 65.0484 0.0799119 65.6826 0.429097C65.8905 0.623889 66.0866 0.887013 66.2742 1.13866L66.2742 1.13869C66.6405 1.63003 66.9741 2.07762 67.2988 1.88746C68.8536 0.778282 69.59 0.860443 70.1219 1.94908C70.3824 2.32788 71.203 2.48491 72.1004 2.65665C73.2469 2.87605 74.5188 3.11946 74.909 3.87987C76.1446 6.5588 76.5494 7.06592 76.7821 7.35736C76.8152 7.39887 76.8448 7.43601 76.8729 7.47442C77.7935 8.76846 78.6322 10.3295 80.453 14.4992V14.5608L80.5962 14.7868C84.3808 15.0333 87.1017 15.2181 89.2702 16.0808C90.4771 16.5738 93.0753 17.0873 93.7504 17.1489C94.3509 17.2908 95.3173 17.7592 96.4001 18.2841L96.4001 18.2841L96.4005 18.2843C97.1989 18.6713 98.0604 19.0889 98.8852 19.4289C98.9379 19.4598 99.0114 19.5115 99.1012 19.5747L99.1014 19.5748L99.1015 19.5749C99.4298 19.8061 99.9758 20.1904 100.522 20.271C101.258 20.4354 101.852 20.6818 102.22 21.0926C102.547 21.4007 103.55 22.0991 104.511 22.7564C105.211 23.2155 105.362 23.4241 105.606 23.7601C105.711 23.9051 105.834 24.074 106.025 24.2969C106.174 24.453 106.545 24.7077 107.016 25.0299L107.016 25.0299C107.97 25.6831 109.329 26.6138 110.055 27.5628C110.179 27.7275 110.434 28.0507 110.777 28.487L110.778 28.4882L110.778 28.4885L110.782 28.4929L110.782 28.4933L110.782 28.4935C112.199 30.2916 115.118 33.9975 116.663 36.4568C118.77 39.8049 121.552 44.7962 122.493 49.6026C122.595 50.1161 122.677 50.4037 122.882 50.5269C123.941 50.3544 124.991 50.0712 125.694 49.8815C125.995 49.8002 126.233 49.7361 126.38 49.7053C131.535 48.514 134.379 48.0004 135.913 48.0004C136.404 48.0004 136.752 48.0415 137.018 48.1648C137.632 48.4318 140.066 48.0004 144.055 46.9529ZM74.7251 62.6781C76.7447 62.0295 78.0565 61.6038 78.931 61.2794C80.326 60.4078 80.3468 59.4753 80.1386 58.9077C80.0768 58.7123 80.0179 58.4611 79.9321 58.0951L79.9319 58.0943L79.9319 58.094C79.7863 57.4733 79.5635 56.5226 79.1184 54.9549C77.4318 48.9547 76.3283 46.8466 75.9535 46.4209C75.5163 45.9344 75.2456 44.8195 75.2456 43.664C75.3081 41.495 73.3925 33.9745 72.4764 32.6569C71.7268 31.6028 70.9564 32.4948 69.7072 35.8395C69.2283 37.1165 68.4162 38.8193 67.9165 39.6098C66.9796 41.0288 66.0634 44.5762 65.4596 47.7587C65.0224 49.2993 64.1479 51.5697 62.8986 53.9616C61.5869 56.3942 61.3578 57.2861 61.1496 58.1375C61.0176 58.5574 60.9414 58.9629 60.8722 59.3309C60.7778 59.8333 60.6964 60.2658 60.5042 60.57C59.9628 61.5227 58.8593 66.3269 58.9634 66.6918C59.0675 67.1175 63.6482 66.3674 66.2508 65.5769C67.6667 64.989 71.477 63.6511 74.7251 62.6781ZM89.0103 27.4244C90.4541 27.6738 93.8231 29.3574 93.8231 29.3574C94.4211 29.5635 95.4748 30.3918 96.3861 31.1082C97.0373 31.6201 97.6157 32.0749 97.9035 32.2048C98.3765 32.4062 98.9717 32.9977 99.5369 33.5594C99.8469 33.8673 100.148 34.1663 100.415 34.3872C100.63 34.6669 100.757 34.8836 100.873 35.0822C101.161 35.5768 101.384 35.9588 102.758 36.9228C104.035 38.0868 105.206 39.9989 106.19 41.7032C106.37 42.0189 106.569 42.3812 106.781 42.7673L106.781 42.7674C107.406 43.9061 108.144 45.251 108.847 46.2134C109.517 47.3358 110.668 51.1808 110.312 51.7004C109.935 52.2616 100.498 55.4624 97.4431 56.0859H97.4222C97.3385 56.1067 97.2339 56.1275 97.1502 56.1275C93.8649 56.3353 93.1535 55.9612 92.5676 53.2593C92.4212 52.5324 91.9166 51.5413 91.4403 50.6057C91.2356 50.2037 91.0362 49.8119 90.8726 49.4557C90.4639 48.5606 90.0749 47.7671 89.6898 46.9815L89.6897 46.9813L89.6895 46.9809C88.5367 44.6296 87.419 42.3497 85.9133 37.6295C85.3954 36.0084 85.0371 34.2557 84.7299 32.7528C84.3794 31.0378 84.0954 29.648 83.7162 29.1495C83.2988 28.4437 82.7416 27.8707 82.2281 27.3426L82.228 27.3426L82.228 27.3425C81.7889 26.8911 81.3819 26.4725 81.1215 26.0319C81.9256 26.2275 83.2573 26.2441 83.9056 26.2522C84.084 26.2545 84.2106 26.256 84.2603 26.2605C84.5021 26.2872 85.1159 26.4548 85.8637 26.659L85.8638 26.659C86.8628 26.9318 88.1008 27.2699 89.0103 27.4244ZM32.2494 57.7542C32.2381 58.4204 32.2225 59.3412 32.0719 60.0598C31.3041 63.7264 31.3041 65.9844 31.8851 70.2311C31.8851 70.2311 32.5491 74.395 33.3169 74.7471C33.7319 74.9336 35.2881 74.54 36.6784 74.1464L39.0231 73.4213C43.3391 71.9712 43.8164 71.3912 44.0862 70.3554C44.1211 70.257 44.18 70.0836 44.2576 69.8552L44.2581 69.8538C44.6866 68.5915 45.6837 65.6549 46.3687 64.4101C47.2402 62.96 47.4477 62.0899 47.5099 61.3856L48.5059 59.7076C48.4437 59.3347 48.9209 57.7604 49.6887 56.5796C50.3942 55.3988 51.3072 53.4308 51.6392 51.9186C51.9745 50.5608 52.9622 48.1177 53.7462 46.1783C53.8354 45.9576 53.922 45.7435 54.0047 45.5382C54.8139 43.5288 55.2497 42.2444 55.4572 41.0015C55.5609 40.2971 56.7022 36.5269 58.1132 34.3518C58.7149 33.2124 59.0884 32.4045 59.3582 31.4309L59.8562 29.6493C60.2297 28.9243 60.4787 28.365 60.7277 27.8057C59.3789 28.2407 58.2169 28.7171 57.3454 29.1729C56.8474 29.3179 55.2289 29.8358 54.9177 30.2087L53.0294 31.0373C52.24 31.4001 51.5263 31.8988 50.742 32.4469L50.7418 32.447C50.2274 32.8065 49.6826 33.1871 49.0662 33.5646C48.2118 34.0852 47.1913 35.0086 46.2997 35.8154L46.2997 35.8154C45.524 36.5174 44.8458 37.131 44.4597 37.3141C42.7335 38.5013 42.4433 38.8743 39.3121 42.8994L39.306 42.9072L39.3059 42.9074C39.0513 43.2346 38.778 43.586 38.4836 43.9638C38.1845 44.3454 37.8821 44.7668 37.6016 45.1576L37.6016 45.1577C37.1816 45.7428 36.811 46.2592 36.5746 46.4704C36.1418 46.824 36.0634 47.3825 36.0033 47.8103L35.9936 47.879C35.9314 48.4176 35.5371 48.7698 35.2259 48.977C34.7694 49.2877 34.4581 49.5984 34.3959 50.0335C34.2921 50.7585 33.9601 51.9393 33.3376 53.493C32.7359 54.9845 32.2794 56.6417 32.2586 57.3253C32.2546 57.4495 32.2522 57.5945 32.2494 57.7542ZM90.2032 99.1999C89.5729 99.1999 88.0683 99.8649 87.3566 100.409C87.0726 100.623 86.3506 100.824 85.6233 101.027C85.0489 101.187 84.4712 101.348 84.1034 101.517C83.8795 101.606 83.3206 101.746 82.7443 101.89L82.7438 101.89C82.0114 102.072 81.251 102.262 81.1144 102.364C80.5655 102.727 79.7318 102.868 79.3658 102.747C78.6525 102.874 78.07 103.017 77.5906 103.134L77.5903 103.134C76.9356 103.293 76.4733 103.406 76.1329 103.371C75.7855 103.336 75.1768 103.461 74.5275 103.595C74.0748 103.688 73.6023 103.785 73.1846 103.835C72.8918 103.866 72.6406 103.896 72.4116 103.923L72.4114 103.923C71.5911 104.02 71.0555 104.084 69.9111 104.036C69.3644 104.004 68.9945 103.946 68.6005 103.884L68.6003 103.884C68.0124 103.791 67.3705 103.69 66.0072 103.654C63.2931 103.582 60.0562 102.738 58.036 102.212L58.0359 102.212C57.2109 101.997 56.5888 101.835 56.2881 101.8C55.4544 101.699 53.9091 101.135 52.8925 100.671C52.6981 100.584 52.5079 100.498 52.3215 100.415L52.3214 100.415C50.8315 99.7479 49.5826 99.1886 48.3176 98.4543C48.7242 98.152 49.0699 97.8699 49.1309 97.4668C49.0292 97.0033 50.9812 92.2474 52.0995 90.3128C52.2976 89.9746 52.2991 89.6954 52.3007 89.3923C52.3021 89.1354 52.3036 88.8612 52.4248 88.5192L52.44 88.3613C52.5282 87.436 52.5603 87.0996 53.1771 86.2017C53.7058 85.2545 53.9701 84.5089 54.3971 82.937C54.4378 82.7557 54.4988 82.534 54.5598 82.3325L55.9627 82.2317C55.9627 82.2317 56.4507 82.2115 56.6744 82.1108C57.447 81.8488 57.9554 81.0024 57.874 80.7807C57.7317 80.3172 62.2049 78.4028 66.4545 77.1332C77.1089 74.0499 81.9278 72.4579 83.9814 71.551C86.0553 70.8054 86.3807 71.5712 86.523 72.4175C86.7263 73.4252 88.0276 78.3826 90.1422 83.7633C90.8335 85.5568 91.5045 87.0279 91.7282 87.2899C91.9315 87.4914 92.0535 87.6124 92.6432 87.6527C93.7615 87.7131 94.5545 89.547 93.6598 90.0709C93.2938 90.2725 93.4565 91.0181 94.0868 92.3884C94.6154 93.5371 94.9204 94.6858 94.8391 95.0284C94.8391 95.0462 94.982 95.4101 95.2116 95.995L95.2118 95.9957L95.3068 96.2375C93.3548 97.5273 91.0572 98.8372 90.2032 99.1999ZM112.885 65.385C112.763 63.8552 112.233 61.9991 112.233 61.9991C112.233 61.3871 111.764 61.2443 108.746 62.0806C108.544 62.1384 108.352 62.1911 108.172 62.2405C107.844 62.3305 107.556 62.4096 107.319 62.4886L107.135 62.5498C106.877 62.6353 106.626 62.7182 106.381 62.799C100.089 64.8752 98.2072 65.4961 101.446 70.974C101.697 71.3961 101.966 71.8238 102.222 72.2316C102.821 73.1835 103.352 74.0274 103.424 74.4415C103.526 75.0331 104.178 76.7873 104.81 78.3375L106.014 81.1319C106.483 82.2538 106.87 83.0493 107.217 83.6612C107.359 83.3553 107.523 83.0493 107.686 82.7433C108.085 81.8536 108.503 81.1616 108.933 80.4498C109.272 79.8887 109.619 79.3153 109.969 78.623L110.581 76.5629C110.656 76.3642 110.742 76.1208 110.839 75.8501C111.138 75.0088 111.531 73.9032 111.947 73.0545C112.539 71.8715 112.661 70.6476 112.58 69.7909C112.518 69.0566 112.559 68.5874 112.661 68.3427C112.784 68.0367 112.906 67.0372 112.885 65.385Z" fill="#F20007"/>
</svg>
