<?xml version="1.0" encoding="utf-8"?>
<!-- Generator: Adobe Illustrator 18.1.1, SVG Export Plug-In . SVG Version: 6.00 Build 0)  -->
<svg version="1.1"
	 id="svg2168" inkscape:version="0.45.1" sodipodi:docbase="C:\Users\Anne" inkscape:output_extension="org.inkscape.output.svg.inkscape" sodipodi:version="0.32" sodipodi:docname="anarchy.svg" xmlns:cc="http://web.resource.org/cc/" xmlns:sodipodi="http://sodipodi.sourceforge.net/DTD/sodipodi-0.dtd" xmlns:rdf="http://www.w3.org/1999/02/22-rdf-syntax-ns#" xmlns:svg="http://www.w3.org/2000/svg" xmlns:inkscape="http://www.inkscape.org/namespaces/inkscape" xmlns:dc="http://purl.org/dc/elements/1.1/"
	 xmlns="http://www.w3.org/2000/svg" xmlns:xlink="http://www.w3.org/1999/xlink" x="0px" y="0px" viewBox="142 361 328 70"
	 enable-background="new 142 361 328 70" xml:space="preserve">
<g>
	<path fill="#FFFFFF" d="M227.2,380.9l4.5,4.5v24.8l-4.3,4.3h-16l0-33.6H227.2z M218.2,408.5h5.2l1.5-1.5v-18.5l-1.4-1.4h-5.3V408.5
		z"/>
	<path fill="#FFFFFF" d="M256.8,385.4l0,9.1l-2.8,2.8l2.8,2.8v10.2l-4.3,4.3h-16v-33.6h15.9L256.8,385.4z M243.2,396.7l5.3-2.7
		l1.4-1.5v-3.8l-1.5-1.4h-5.2V396.7z M250,402.1l-1.4-1.5l-5.3,2.8v5.2h5.2l1.5-1.5V402.1z"/>
	<path fill="#FFFFFF" d="M268.3,380.9l0,27.6l13.2,0v6.1h-20v-33.7H268.3z"/>
	<path fill="#FFFFFF" d="M302.3,380.9l4.5,4.5v24.7l-4.5,4.5h-11.4l-4.5-4.5v-24.7l4.5-4.5H302.3z M298.8,408.4l1.2-1.3v-18.9
		l-1.2-1.2h-4.3l-1.3,1.3v18.9l1.2,1.2H298.8z"/>
	<path fill="#FFFFFF" d="M327.3,380.9l4.5,4.5v5.2l-6.8,0v-2.3l-1.2-1.2h-4.3l-1.3,1.3v18.9l1.2,1.2h4.3l1.3-1.3v-2.6l6.8,0v5.6
		l-4.5,4.5h-11.4l-4.5-4.5v-24.7l4.5-4.5H327.3z"/>
	<path fill="#FFFFFF" d="M356.6,414.6h-6.8v-14.7l-1.4-1.4l-5,2.5v13.6h-6.8v-33.6h6.8v13.2l5-2.5l1.4-1.4v-9.3h6.8l0,11.3l-2.8,2.8
		l2.8,2.8V414.6z"/>
	<path fill="#FFFFFF" d="M393.3,380.9v6.1h-12.7v7.2h10.3v5.9l-10.3,0l0,14.3h-6.8l0-33.6H393.3z"/>
	<path fill="#FFFFFF" d="M410.3,380.9l6.1,33.6h-6.6l-1-7.2h-5l-1.2,7.2h-6.5l6.1-33.6H410.3z M404.8,401.3h3l-1.5-9.6L404.8,401.3z
		"/>
	<path fill="#FFFFFF" d="M435.2,380.9l4.5,4.5v5.6h-6.8v-2.8l-1.2-1.2h-4.3l-1.3,1.3v4.1l13,6.9V410l-4.5,4.5h-11.3l-4.5-4.5v-5.7
		l6.8,0l0,2.9l1.2,1.2l4.3,0l1.3-1.3v-4l-13-6.9v-10.8l4.5-4.5H435.2z"/>
	<path fill="#FFFFFF" d="M465.6,380.9v6.1l-7.8,0v27.5h-6.8V387l-7.7,0v-6.1H465.6z"/>
	<path fill="#FFFFFF" d="M219.9,388.5c-0.6,0-1.6,0.1-3.3,0.6c-1.9,0.5-3.1,0.7-3.4,0.6c-0.1-0.1-0.3-0.1-0.5-0.1
		c-0.7,0-2.1,0.2-4.7,0.8c-0.2,0.1-1,0.3-1.7,0.4c-0.1-0.1-0.1-0.2-0.2-0.5c-0.5-2.3-1.8-4.8-2.8-6.4c-0.9-1.5-2.9-3.9-3.2-4.3
		c-0.5-0.7-1.8-1.4-2-1.6c-0.3-0.4-0.2-0.4-0.7-0.7c-0.5-0.3-1-0.7-1.1-0.8c-0.2-0.2-0.5-0.3-0.8-0.4c-0.3-0.1-0.7-0.3-0.8-0.4
		c-0.9-0.4-2-1-2.5-1.1c-0.3,0-1.6-0.3-2.2-0.5c-1.1-0.4-2.4-0.5-4.2-0.6l-0.1-0.1v0c-0.8-2-1.2-2.8-1.8-3.4
		c-0.1-0.1-0.4-0.8-0.7-2.2c-0.3-1.3-0.3-2.3-0.6-2.3c-0.3,0.1-0.6,1.3-0.7,1.6c-0.2,0.3-1.1,1.1-1.4,0.3c-0.2-0.7-0.6-0.9-1.3,0
		c-0.4,0.5-0.5,0.6-0.9,0.4c-0.4-0.2-0.5-0.2-0.6,0.2c-0.1,0.2-0.1,0.7-0.1,0.9c0.2,0.8,0.5,4.4,0.5,4.8c0,0.1,0,0.2-0.1,0.4
		c-0.8,0.3-1.4,0.5-2,0.6c-0.8,0.1-1.5,0.1-1.6,0.2c-0.7,0.1-1.9,0.6-3.1,1.2c-1.1,0.6-2.5,1.2-3.1,1.5c-1.2,0.4-4,2.6-5.4,4.5
		c-0.5,0.6-1.3,1.1-1.6,1.2c-0.4,0.1-0.4,0.4-0.2,1.1c0,0.1,0,0.1,0,0.2c-0.2,0.1-0.2,0.2-0.5,0.3c-0.4,0.1-0.6,0.3-0.6,0.4
		s-0.1,0.3-0.3,0.5c-0.2,0.1-0.5,0.7-0.7,1.3s-1,1.9-1.4,2.9c-0.5,1.1-1,2.4-1.1,3.1c-0.1,0.7-0.2,1.8-0.3,2.1s-0.2,1-0.2,1.3
		c0.1,0.4,0,1-0.1,1.5c-0.1,0.4,0,1,0,1.3c0,0.6,0.1,1.1,0,1.4c0,0.4,0,1.2,0.1,1.9c0.4,3,1.4,1.9-4.8,4c-4.2,1.4-4.9,1.8-4.7,2.5
		c0.1,0.4,0.9,0.2,0.9,0.2c0.2,0,0.5,0.2,0.7,0.6c0.2,0.4,0.6,0.7,0.9,0.7c1.1,0,1.6,1.1,1.7,1.5c0.1,0.5-0.3,0.8-0.6,0.9
		c-1.5,0.4-1.2,1.5,0.3,1.4c0.5-0.1,1.4,0.3,2.5-0.3c0.9-0.4,2.5-1.2,3.8-1.6l2.1-0.7c0.3,0,0.4,0.1,0.4,0.2l0.6,0.8
		c0.4,0.5,0.7,1,0.8,1.2c0,0.2,0.3,0.4,0.6,0.6c0.1,0,0.2,0.1,0.3,0.2c-0.2,0.7-0.5,1.1-0.6,1.2c-0.2,0.3-1.6,5.1-2.5,6.8
		c-0.3,0.4-0.5,1-0.6,1.3c-0.3,1.5-1.9,2.6,0.7,3.1c0.1,0.1,0.5-0.2,0.9-0.6c0.9-0.9,1.1-0.9,1.2-0.4c0.1,0.5,1.3,0.2,2-0.7
		c1-0.8,1.8-0.9,2.6-0.1c0,0,0,0,0,0c1,0.7,1.4,0.8,1.6-0.4v0c0.1-0.5-0.5-1.6-0.1-2.1c0.5-0.6,0.6-1.1,0.7-1.6c0-0.5,0-0.8,0.2-1.1
		c0-0.1,0.1-0.1,0.1-0.2c0.8,0.4,1.3,0.4,1.3,0.4c0.2,0,0.7,0.5,1.6,0.7c0.9,0.2,1.9,0.5,2.3,0.6c0.3,0.2,0.8,0.2,1,0.2
		c0.2,0,0.3,0.1,0.5,0.1c0.2,0.1,0.4,0.2,0.7,0.1s1.1,0.1,1.7,0.3c0.7,0.1,1.6,0.3,2.2,0.2c0.9,0,1.3,0,1.8,0c0.9,0,3.2-0.2,6.5-1
		c0.9-0.3,1.4-0.6,2.1-0.6c0.7,0,1-0.3,1.3-0.6c1-0.6,2.7-1.3,3.7-1.8c0,0.1,0,0.2,0,0.2c0,0.1,0.1,0.2,0.2,0.2
		c0.7,0.7,1.2,0.1,1.6,0.4c0.4,0.3,0.5,0.3,0.9,0.8c0.7,0.9,1.3,0.2,1.9,0.7c0,0,0,0,0,0c1,1.3,1.5,1.4,1.8,1.2
		c0.3-0.4,0.2-0.6-0.1-1.3l0-0.5c0.2-0.5,0.3-0.8,1.3-0.4c0.5,0.4,0.7,0.1,1.9,1.3c0.6,0.8,1.6,1.1,1.5,0c-0.6-2-1.4-3.3-2.4-4.8h0
		c-0.3-0.6-0.5-1.4-0.7-1.9c-0.2-0.6-0.5-1.3-0.8-1.8c0.6-0.8,1.2-1.8,1.5-2.4c0.4-0.7,0.7-1.3,0.7-1.4c0.2-0.4,0.5-1.1,0.6-1.3
		c0.2-0.3,0.4-0.6,0.5-1.1c0.1-0.5,0.4-1.3,0.7-1.9c0.6-1,1.1-4.1,1.2-7c-0.1-0.8-0.1-1.8-0.1-2.2c0-0.7,0.1-0.8,2.3-1.6
		c1.2-0.5,3.6-1.2,5.3-1.6c2.3-0.6,3.4-1.1,4.6-1.7c0,0,0,0,0,0c1-1.1,0.6-0.7,1.2-1.2C220.2,388.7,220.1,388.5,219.9,388.5z
		 M184.7,396.1c-0.4,0.2-1.1,0.4-2,0.7c-1.6,0.5-3.4,1.1-4.1,1.4c-1.3,0.4-3.4,0.8-3.5,0.5c-0.1-0.2,0.5-2.6,0.7-3
		c0.2-0.3,0.2-0.7,0.3-1.2c0.1-0.4,0.2-0.9,0.8-2.1c0.6-1.2,1-2.3,1.2-3.1c0.3-1.6,0.7-3.3,1.2-4c0.2-0.4,0.6-1.2,0.9-1.9
		c0.6-1.6,1-2.1,1.3-1.6c0.4,0.7,1.4,4.4,1.3,5.4c0,0.6,0.1,1.1,0.3,1.4c0.2,0.2,0.7,1.3,1.5,4.2c0.3,1.2,0.4,1.7,0.5,2
		C185.4,395.2,185.4,395.7,184.7,396.1L184.7,396.1z M190,379.6c0.7,0.1,2.3,0.9,2.3,0.9c0.5,0.2,1.6,1.2,1.9,1.4
		c0.4,0.2,0.8,0.7,1.2,1.1c0.4,0.5,0.2,0.6,1.1,1.2c0.6,0.6,1.2,1.5,1.6,2.3c0.3,0.6,0.8,1.6,1.3,2.2c0.3,0.5,0.9,2.4,0.7,2.6
		c-0.2,0.3-4.7,1.8-6.2,2.1c0,0,0,0,0,0c0,0-0.1,0-0.1,0c-1.6,0.1-1.9-0.1-2.2-1.4c-0.1-0.5-0.6-1.3-0.8-1.8
		c-0.8-1.7-1.4-2.7-2.4-5.7c-0.5-1.7-0.7-3.6-1-4.1c-0.4-0.6-1-1-1.2-1.5c0.5,0.1,1.4,0.1,1.5,0.1C188,379.1,189.2,379.5,190,379.6z
		 M161.7,395.4c0.1-0.4,0.1-1,0.1-1.3c0-0.3,0.2-1.1,0.5-1.9c0.3-0.8,0.5-1.3,0.5-1.7c0-0.2,0.2-0.4,0.4-0.5
		c0.1-0.1,0.3-0.3,0.4-0.5c0-0.2,0.1-0.5,0.3-0.7c0.2-0.2,0.6-0.7,0.9-1.2c1.9-2.4,2-2.6,2.9-3.2c0.4-0.2,1.5-1.3,2.2-1.8
		c0.7-0.5,1.3-0.9,1.9-1.2l0.9-0.4c0.2-0.2,0.9-0.4,1.2-0.5c0.4-0.2,1-0.5,1.6-0.7c-0.1,0.3-0.2,0.5-0.4,0.9l-0.2,0.9
		c-0.1,0.5-0.3,0.9-0.6,1.4c-0.7,1-1.2,2.9-1.3,3.2c-0.1,0.6-0.3,1.2-0.7,2.2c-0.4,1-1,2.4-1.1,3.1c-0.2,0.7-0.6,1.7-0.9,2.3
		c-0.4,0.6-0.6,1.3-0.6,1.5l-0.5,0.8c0,0.3-0.1,0.8-0.5,1.5c-0.4,0.7-1,2.6-1.1,2.9c-0.1,0.5-0.4,0.8-2.4,1.5l-1.1,0.4
		c-0.7,0.2-1.4,0.4-1.6,0.3c-0.4-0.2-0.7-2.2-0.7-2.2C161.3,398.3,161.3,397.2,161.7,395.4z M190,414.4c-0.3,0-1,0.3-1.4,0.6
		c-0.3,0.2-1.2,0.4-1.6,0.5c-0.3,0.1-1.3,0.3-1.5,0.4c-0.3,0.2-0.7,0.2-0.9,0.2c-0.8,0.2-1.3,0.3-1.6,0.3c-0.3,0-0.9,0.2-1.4,0.2
		c-0.7,0.1-0.9,0.1-1.6,0.1c-0.7,0-0.8-0.2-1.9-0.2c-1.9-0.1-4.3-0.9-4.8-0.9c-0.4-0.1-1.2-0.3-1.7-0.6c-0.9-0.4-1.5-0.7-2.3-1.1
		c0.2-0.1,0.4-0.3,0.4-0.5c-0.1-0.2,0.9-2.6,1.5-3.6c0.2-0.3,0-0.5,0.2-0.9c0.1-0.5,0.1-0.7,0.4-1.1c0.3-0.5,0.4-0.8,0.6-1.6
		c0-0.1,0-0.2,0.1-0.3l0.7-0.1c0,0,0.2,0,0.3-0.1c0.4-0.1,0.6-0.6,0.6-0.7c-0.1-0.2,2.1-1.2,4.2-1.8c5.2-1.5,7.6-2.3,8.6-2.8
		c1-0.4,1.2,0,1.3,0.4c0.1,0.5,0.7,3,1.8,5.6c0.3,0.9,0.7,1.6,0.8,1.8c0.1,0.1,0.2,0.2,0.4,0.2c0.5,0,0.9,0.9,0.5,1.2
		c-0.2,0.1-0.1,0.5,0.2,1.1c0.3,0.6,0.4,1.1,0.4,1.3c0,0,0.1,0.2,0.2,0.6C191.5,413.5,190.4,414.2,190,414.4z M201.1,396.1
		c0,0,0.3,0.9,0.3,1.7c0,0.8-0.1,1.3-0.1,1.5c0,0.1-0.1,0.3,0,0.7c0,0.4,0,1-0.3,1.6c-0.3,0.5-0.5,1.3-0.7,1.7l-0.3,1
		c-0.4,0.8-0.8,1.2-1.1,2c-0.1,0.1-0.2,0.3-0.2,0.5c-0.2-0.3-0.4-0.7-0.6-1.2l-0.6-1.4c-0.3-0.8-0.6-1.6-0.7-1.9
		c-0.1-0.3-0.6-1-1-1.7c-1.7-2.8-0.6-3,2.8-4.1c0,0,0.1,0,0.1,0c0.2-0.1,0.4-0.1,0.7-0.2C200.8,395.8,201.1,395.8,201.1,396.1z"/>
</g>
</svg>
